<svg height="480pt" viewBox="0 0 480 480" width="480pt" xmlns="http://www.w3.org/2000/svg"><path d="m472 0h-56c-4.417969 0-8 3.582031-8 8 0 13.253906-10.746094 24-24 24s-24-10.746094-24-24c0-4.417969-3.582031-8-8-8h-32c-4.417969 0-8 3.582031-8 8 0 13.253906-10.746094 24-24 24s-24-10.746094-24-24c0-4.417969-3.582031-8-8-8h-32c-4.417969 0-8 3.582031-8 8 0 13.253906-10.746094 24-24 24s-24-10.746094-24-24c0-4.417969-3.582031-8-8-8h-32c-4.417969 0-8 3.582031-8 8 0 13.253906-10.746094 24-24 24s-24-10.746094-24-24c0-4.417969-3.582031-8-8-8h-56c-4.417969 0-8 3.582031-8 8v56c0 4.417969 3.582031 8 8 8 13.253906 0 24 10.746094 24 24s-10.746094 24-24 24c-4.417969 0-8 3.582031-8 8v32c0 4.417969 3.582031 8 8 8 13.253906 0 24 10.746094 24 24s-10.746094 24-24 24c-4.417969 0-8 3.582031-8 8v32c0 4.417969 3.582031 8 8 8 13.253906 0 24 10.746094 24 24s-10.746094 24-24 24c-4.417969 0-8 3.582031-8 8v32c0 4.417969 3.582031 8 8 8 13.253906 0 24 10.746094 24 24s-10.746094 24-24 24c-4.417969 0-8 3.582031-8 8v56c0 4.417969 3.582031 8 8 8h56c4.417969 0 8-3.582031 8-8 0-13.253906 10.746094-24 24-24s24 10.746094 24 24c0 4.417969 3.582031 8 8 8h32c4.417969 0 8-3.582031 8-8 0-13.253906 10.746094-24 24-24s24 10.746094 24 24c0 4.417969 3.582031 8 8 8h32c4.417969 0 8-3.582031 8-8 0-13.253906 10.746094-24 24-24s24 10.746094 24 24c0 4.417969 3.582031 8 8 8h32c4.417969 0 8-3.582031 8-8 0-13.253906 10.746094-24 24-24s24 10.746094 24 24c0 4.417969 3.582031 8 8 8h56c4.417969 0 8-3.582031 8-8v-56c0-4.417969-3.582031-8-8-8-13.253906 0-24-10.746094-24-24s10.746094-24 24-24c4.417969 0 8-3.582031 8-8v-32c0-4.417969-3.582031-8-8-8-13.253906 0-24-10.746094-24-24s10.746094-24 24-24c4.417969 0 8-3.582031 8-8v-32c0-4.417969-3.582031-8-8-8-13.253906 0-24-10.746094-24-24s10.746094-24 24-24c4.417969 0 8-3.582031 8-8v-32c0-4.417969-3.582031-8-8-8-13.253906 0-24-10.746094-24-24s10.746094-24 24-24c4.417969 0 8-3.582031 8-8v-56c0-4.417969-3.582031-8-8-8zm-8 56.800781c-18.644531 3.785157-32.039062 20.175781-32.039062 39.199219s13.394531 35.414062 32.039062 39.199219v17.601562c-18.644531 3.785157-32.039062 20.175781-32.039062 39.199219s13.394531 35.414062 32.039062 39.199219v17.601562c-18.644531 3.785157-32.039062 20.175781-32.039062 39.199219s13.394531 35.414062 32.039062 39.199219v17.601562c-18.644531 3.785157-32.039062 20.175781-32.039062 39.199219s13.394531 35.414062 32.039062 39.199219v40.800781h-40.800781c-3.785157-18.644531-20.175781-32.039062-39.199219-32.039062s-35.414062 13.394531-39.199219 32.039062h-17.601562c-3.785157-18.644531-20.175781-32.039062-39.199219-32.039062s-35.414062 13.394531-39.199219 32.039062h-17.601562c-3.785157-18.644531-20.175781-32.039062-39.199219-32.039062s-35.414062 13.394531-39.199219 32.039062h-17.601562c-3.785157-18.644531-20.175781-32.039062-39.199219-32.039062s-35.414062 13.394531-39.199219 32.039062h-40.800781v-40.800781c18.644531-3.785157 32.039062-20.175781 32.039062-39.199219s-13.394531-35.414062-32.039062-39.199219v-17.601562c18.644531-3.785157 32.039062-20.175781 32.039062-39.199219s-13.394531-35.414062-32.039062-39.199219v-17.601562c18.644531-3.785157 32.039062-20.175781 32.039062-39.199219s-13.394531-35.414062-32.039062-39.199219v-17.601562c18.644531-3.785157 32.039062-20.175781 32.039062-39.199219s-13.394531-35.414062-32.039062-39.199219v-40.800781h40.800781c3.785157 18.644531 20.175781 32.039062 39.199219 32.039062s35.414062-13.394531 39.199219-32.039062h17.601562c3.785157 18.644531 20.175781 32.039062 39.199219 32.039062s35.414062-13.394531 39.199219-32.039062h17.601562c3.785157 18.644531 20.175781 32.039062 39.199219 32.039062s35.414062-13.394531 39.199219-32.039062h17.601562c3.785157 18.644531 20.175781 32.039062 39.199219 32.039062s35.414062-13.394531 39.199219-32.039062h40.800781zm0 0"/><path d="m240 80c-88.367188 0-160 71.632812-160 160s71.632812 160 160 160 160-71.632812 160-160c-.101562-88.324219-71.675781-159.898438-160-160zm0 304c-79.527344 0-144-64.472656-144-144s64.472656-144 144-144 144 64.472656 144 144c-.09375 79.492188-64.507812 143.90625-144 144zm0 0"/><path d="m336.726562 232c-2.109374-.210938-4.214843.433594-5.847656 1.785156-1.632812 1.355469-2.660156 3.304688-2.847656 5.414063-.296875 3.367187-8.253906 80.800781-88.03125 80.800781-79.472656 0-87.71875-77.449219-88-80.742188-.40625-4.421874-4.316406-7.671874-8.734375-7.265624s-7.671875 4.316406-7.265625 8.734374c.121094.953126 9.785156 95.273438 104 95.273438s103.878906-94.320312 104-95.273438c.203125-2.121093-.453125-4.238281-1.816406-5.878906-1.367188-1.636718-3.332032-2.664062-5.457032-2.847656zm0 0"/><path d="m200 232c17.671875 0 32-14.328125 32-32s-14.328125-32-32-32-32 14.328125-32 32 14.328125 32 32 32zm0-48c8.835938 0 16 7.164062 16 16s-7.164062 16-16 16-16-7.164062-16-16 7.164062-16 16-16zm0 0"/><path d="m280 232c17.671875 0 32-14.328125 32-32s-14.328125-32-32-32-32 14.328125-32 32 14.328125 32 32 32zm0-48c8.835938 0 16 7.164062 16 16s-7.164062 16-16 16-16-7.164062-16-16 7.164062-16 16-16zm0 0"/><path d="m96 80c4.417969 0 8-3.582031 8-8s-3.582031-8-8-8h-16c-4.417969 0-8 3.582031-8 8s3.582031 8 8 8zm0 0"/><path d="m96 104c0 4.417969 3.582031 8 8 8h8c4.417969 0 8-3.582031 8-8s-3.582031-8-8-8h-8c-4.417969 0-8 3.582031-8 8zm0 0"/><path d="m392 376c0-4.417969-3.582031-8-8-8h-16c-4.417969 0-8 3.582031-8 8s3.582031 8 8 8h16c4.417969 0 8-3.582031 8-8zm0 0"/><path d="m408 400h-16c-4.417969 0-8 3.582031-8 8s3.582031 8 8 8h16c4.417969 0 8-3.582031 8-8s-3.582031-8-8-8zm0 0"/></svg>