<?xml version="1.0" encoding="UTF-8" standalone="no"?><!-- Generator: Gravit.io --><svg xmlns="http://www.w3.org/2000/svg" xmlns:xlink="http://www.w3.org/1999/xlink" style="isolation:isolate" viewBox="0 0 50 50" width="50pt" height="50pt"><defs><clipPath id="_clipPath_YSLktgKJCh1jCZ3PBoi3asnUcMGVYGTF"><rect width="50" height="50"/></clipPath></defs><g clip-path="url(#_clipPath_YSLktgKJCh1jCZ3PBoi3asnUcMGVYGTF)"><path d=" M 6.632 49.49 L 2.552 49.49 C 1.278 49.49 0.316 48.337 0.543 47.084 L 4.187 25 L 45.812 25 L 49.455 47.084 C 49.683 48.337 48.721 49.49 47.447 49.49 L 43.367 49.49 L 6.632 49.49 Z " fill="rgb(227,238,236)"/><path d=" M 46.826 31.122 L 40.306 31.122 L 41.836 40.306 L 48.336 40.306 L 46.826 31.122 Z " fill="rgb(208,225,221)"/><path d=" M 3.173 31.122 L 9.693 31.122 L 8.206 40.306 L 1.663 40.306 L 3.173 31.122 Z " fill="rgb(208,225,221)"/><path d=" M 18.367 34.184 L 17.857 37.245 L 14.795 37.245 L 15.306 34.184 L 18.367 34.184 Z " fill="rgb(196,217,213)"/><path d=" M 18.877 31.122 L 18.367 34.184 L 15.306 34.184 L 15.816 31.122 L 18.877 31.122 Z " fill="rgb(181,208,202)"/><path d=" M 21.938 31.122 L 21.428 34.184 L 18.367 34.184 L 18.877 31.122 L 21.938 31.122 Z " fill="rgb(196,217,213)"/><path d=" M 21.428 34.184 L 20.918 37.245 L 17.857 37.245 L 18.367 34.184 L 21.428 34.184 Z " fill="rgb(181,208,202)"/><path d=" M 12.244 34.184 L 11.734 37.245 L 8.673 37.245 L 9.183 34.184 L 12.244 34.184 Z " fill="rgb(196,217,213)"/><path d=" M 12.755 31.122 L 12.244 34.184 L 9.183 34.184 L 9.693 31.122 L 12.755 31.122 Z " fill="rgb(181,208,202)"/><path d=" M 15.816 31.122 L 15.306 34.184 L 12.244 34.184 L 12.755 31.122 L 15.816 31.122 Z " fill="rgb(196,217,213)"/><path d=" M 15.306 34.184 L 14.795 37.245 L 11.734 37.245 L 12.244 34.184 L 15.306 34.184 Z " fill="rgb(181,208,202)"/><path d=" M 24.999 31.122 L 24.999 34.184 L 21.428 34.184 L 21.938 31.122 L 24.999 31.122 Z " fill="rgb(181,208,202)"/><path d=" M 28.571 34.184 L 24.999 34.184 L 24.999 31.122 L 28.061 31.122 L 28.571 34.184 Z " fill="rgb(196,217,213)"/><path d=" M 29.081 37.245 L 24.999 37.245 L 24.999 34.184 L 28.571 34.184 L 29.081 37.245 Z " fill="rgb(181,208,202)"/><path d=" M 24.999 34.184 L 24.999 37.245 L 20.918 37.245 L 21.428 34.184 L 24.999 34.184 Z " fill="rgb(196,217,213)"/><path d=" M 31.632 34.184 L 28.571 34.184 L 28.061 31.122 L 31.122 31.122 L 31.632 34.184 Z " fill="rgb(181,208,202)"/><path d=" M 32.142 37.245 L 29.081 37.245 L 28.571 34.184 L 31.632 34.184 L 32.142 37.245 Z " fill="rgb(196,217,213)"/><path d=" M 35.204 37.245 L 32.142 37.245 L 31.632 34.184 L 34.693 34.184 L 35.204 37.245 Z " fill="rgb(181,208,202)"/><path d=" M 34.693 34.184 L 31.632 34.184 L 31.122 31.122 L 34.183 31.122 L 34.693 34.184 Z " fill="rgb(196,217,213)"/><path d=" M 38.265 37.245 L 35.204 37.245 L 34.693 34.184 L 37.755 34.184 L 38.265 37.245 Z " fill="rgb(196,217,213)"/><path d=" M 37.755 34.184 L 34.693 34.184 L 34.183 31.122 L 37.244 31.122 L 37.755 34.184 Z " fill="rgb(181,208,202)"/><path d=" M 41.326 37.245 L 38.265 37.245 L 37.755 34.184 L 40.816 34.184 L 41.326 37.245 Z " fill="rgb(181,208,202)"/><path d=" M 40.816 34.184 L 37.755 34.184 L 37.244 31.122 L 40.306 31.122 L 40.816 34.184 Z " fill="rgb(196,217,213)"/><path d=" M 17.9 37.245 L 17.389 40.306 L 14.328 40.306 L 14.838 37.245 L 17.9 37.245 Z " fill="rgb(181,208,202)"/><path d=" M 20.959 37.245 L 20.448 40.306 L 17.387 40.306 L 17.897 37.245 L 20.959 37.245 Z " fill="rgb(196,217,213)"/><path d=" M 11.777 37.245 L 11.267 40.306 L 8.206 40.306 L 8.716 37.245 L 11.777 37.245 Z " fill="rgb(181,208,202)"/><path d=" M 14.838 37.245 L 14.328 40.306 L 11.267 40.306 L 11.777 37.245 L 14.838 37.245 Z " fill="rgb(196,217,213)"/><path d=" M 32.653 40.306 L 29.591 40.306 L 29.081 37.245 L 32.142 37.245 L 32.653 40.306 Z " fill="rgb(181,208,202)"/><path d=" M 35.716 40.306 L 32.655 40.306 L 32.144 37.245 L 35.206 37.245 L 35.716 40.306 Z " fill="rgb(196,217,213)"/><path d=" M 38.777 40.306 L 35.716 40.306 L 35.206 37.245 L 38.267 37.245 L 38.777 40.306 Z " fill="rgb(181,208,202)"/><path d=" M 41.838 40.306 L 38.777 40.306 L 38.267 37.245 L 41.328 37.245 L 41.838 40.306 Z " fill="rgb(196,217,213)"/><path d=" M 34.183 49.49 L 32.653 40.306 L 17.389 40.306 L 15.816 49.49 L 34.183 49.49 Z " fill="rgb(208,225,221)"/><g><path d=" M 12.755 29.592 L 10.714 29.592 C 10.432 29.592 10.204 29.363 10.204 29.082 C 10.204 28.8 10.432 28.571 10.714 28.571 L 12.755 28.571 C 13.036 28.571 13.265 28.8 13.265 29.082 C 13.265 29.363 13.036 29.592 12.755 29.592 Z " fill="rgb(196,217,213)"/><path d=" M 16.836 29.592 L 14.795 29.592 C 14.514 29.592 14.285 29.363 14.285 29.082 C 14.285 28.8 14.514 28.571 14.795 28.571 L 16.836 28.571 C 17.118 28.571 17.346 28.8 17.346 29.082 C 17.346 29.363 17.118 29.592 16.836 29.592 Z " fill="rgb(196,217,213)"/><path d=" M 20.918 29.592 L 18.877 29.592 C 18.595 29.592 18.367 29.363 18.367 29.082 C 18.367 28.8 18.595 28.571 18.877 28.571 L 20.918 28.571 C 21.2 28.571 21.428 28.8 21.428 29.082 C 21.428 29.363 21.2 29.592 20.918 29.592 Z " fill="rgb(196,217,213)"/><path d=" M 26.02 29.592 L 23.979 29.592 C 23.697 29.592 23.469 29.363 23.469 29.082 C 23.469 28.8 23.697 28.571 23.979 28.571 L 26.02 28.571 C 26.302 28.571 26.53 28.8 26.53 29.082 C 26.53 29.363 26.302 29.592 26.02 29.592 Z " fill="rgb(196,217,213)"/><path d=" M 31.122 29.592 L 29.081 29.592 C 28.799 29.592 28.571 29.363 28.571 29.082 C 28.571 28.8 28.799 28.571 29.081 28.571 L 31.122 28.571 C 31.404 28.571 31.632 28.8 31.632 29.082 C 31.632 29.363 31.404 29.592 31.122 29.592 Z " fill="rgb(196,217,213)"/><path d=" M 35.204 29.592 L 33.163 29.592 C 32.881 29.592 32.653 29.363 32.653 29.082 C 32.653 28.8 32.881 28.571 33.163 28.571 L 35.204 28.571 C 35.485 28.571 35.714 28.8 35.714 29.082 C 35.714 29.363 35.485 29.592 35.204 29.592 Z " fill="rgb(196,217,213)"/><path d=" M 39.285 29.592 L 37.244 29.592 C 36.963 29.592 36.734 29.363 36.734 29.082 C 36.734 28.8 36.963 28.571 37.244 28.571 L 39.285 28.571 C 39.567 28.571 39.795 28.8 39.795 29.082 C 39.795 29.363 39.567 29.592 39.285 29.592 Z " fill="rgb(196,217,213)"/></g><path d=" M 29.591 40.306 L 20.448 40.306 L 20.959 37.245 L 29.081 37.245 L 29.591 40.306 Z " fill="rgb(186,211,206)"/><path d=" M 49.459 2.918 L 45.816 25 L 4.183 25 L 0.54 2.918 C 0.316 1.663 1.275 0.51 2.551 0.51 L 47.448 0.51 C 48.112 0.51 48.683 0.816 49.04 1.286 C 49.397 1.724 49.571 2.306 49.459 2.918 Z " fill="rgb(51,51,51)"/><ellipse vector-effect="non-scaling-stroke" cx="25.01581133000093" cy="2.544897959183672" rx="0.5102012809282179" ry="0.510204081632653" fill="rgb(140,181,173)"/><path d=" M 49.459 2.918 L 45.816 25 L 4.183 25 L 49.04 1.286 C 49.397 1.724 49.571 2.306 49.459 2.918 Z " fill="rgb(56,56,56)"/><path d=" M 41.827 37.148 L 41.319 34.1 L 40.809 31.039 C 40.768 30.793 40.556 30.612 40.306 30.612 L 37.244 30.612 L 34.183 30.612 L 31.122 30.612 L 28.061 30.612 L 24.999 30.612 L 21.938 30.612 L 18.877 30.612 L 15.816 30.612 L 12.755 30.612 L 9.693 30.612 C 9.443 30.612 9.231 30.793 9.19 31.039 L 8.68 34.1 L 8.17 37.161 C 8.159 37.227 8.166 37.292 8.18 37.355 L 7.703 40.222 C 7.678 40.37 7.72 40.521 7.817 40.636 C 7.914 40.75 8.056 40.816 8.206 40.816 L 11.267 40.816 L 14.328 40.816 L 17.388 40.816 L 17.389 40.816 L 19.897 40.816 L 20.448 40.816 L 29.591 40.816 L 30.101 40.816 L 32.653 40.816 L 32.654 40.816 L 32.655 40.816 L 35.716 40.816 L 38.777 40.816 L 41.838 40.816 C 41.988 40.816 42.131 40.751 42.227 40.636 C 42.324 40.521 42.366 40.369 42.341 40.222 L 41.831 37.161 C 41.831 37.156 41.828 37.153 41.827 37.148 Z  M 25.51 31.633 L 27.628 31.633 L 27.968 33.673 L 25.51 33.673 L 25.51 31.633 Z  M 25.51 34.694 L 28.138 34.694 L 28.478 36.735 L 25.51 36.735 L 25.51 34.694 Z  M 22.371 31.633 L 24.489 31.633 L 24.489 33.673 L 22.03 33.673 L 22.371 31.633 Z  M 21.861 34.694 L 24.489 34.694 L 24.489 36.735 L 21.52 36.735 L 21.861 34.694 Z  M 10.834 39.796 L 8.808 39.796 L 9.148 37.755 L 11.174 37.755 L 10.834 39.796 Z  M 11.302 36.735 L 9.275 36.735 L 9.615 34.694 L 11.641 34.694 L 11.302 36.735 Z  M 9.785 33.673 L 10.125 31.633 L 12.152 31.633 L 11.812 33.673 L 9.785 33.673 Z  M 13.895 39.796 L 11.869 39.796 L 12.209 37.755 L 14.235 37.755 L 13.895 39.796 Z  M 14.363 36.735 L 12.336 36.735 L 12.676 34.694 L 14.703 34.694 L 14.363 36.735 Z  M 12.846 33.673 L 13.186 31.633 L 15.213 31.633 L 14.873 33.673 L 12.846 33.673 Z  M 16.956 39.796 L 14.93 39.796 L 15.27 37.755 L 17.295 37.755 L 16.956 39.796 Z  M 17.424 36.735 L 15.397 36.735 L 15.737 34.694 L 17.764 34.694 L 17.424 36.735 Z  M 15.908 33.673 L 16.247 31.633 L 18.274 31.633 L 17.934 33.673 L 15.908 33.673 Z  M 20.017 39.796 L 19.897 39.796 L 17.991 39.796 L 18.331 37.755 L 20.357 37.755 L 20.017 39.796 Z  M 20.485 36.735 L 18.459 36.735 L 18.798 34.694 L 20.825 34.694 L 20.485 36.735 Z  M 18.969 33.673 L 19.309 31.633 L 21.335 31.633 L 20.995 33.673 L 18.969 33.673 Z  M 21.051 39.796 L 21.39 37.755 L 24.999 37.755 L 28.648 37.755 L 28.988 39.796 L 21.051 39.796 Z  M 28.663 31.633 L 30.689 31.633 L 31.029 33.673 L 29.003 33.673 L 28.663 31.633 Z  M 29.514 36.735 L 29.174 34.694 L 31.2 34.694 L 31.54 36.735 L 29.514 36.735 Z  M 30.101 39.796 L 30.024 39.796 L 29.684 37.755 L 31.711 37.755 L 32.05 39.796 L 30.101 39.796 Z  M 31.724 31.633 L 33.75 31.633 L 34.09 33.673 L 32.064 33.673 L 31.724 31.633 Z  M 32.575 36.735 L 32.235 34.694 L 34.262 34.694 L 34.601 36.735 L 32.575 36.735 Z  M 33.087 39.796 L 32.747 37.755 L 34.774 37.755 L 35.114 39.796 L 33.087 39.796 Z  M 34.785 31.633 L 36.812 31.633 L 37.151 33.673 L 35.125 33.673 L 34.785 31.633 Z  M 35.636 36.735 L 35.296 34.694 L 37.323 34.694 L 37.663 36.735 L 35.636 36.735 Z  M 36.148 39.796 L 35.809 37.755 L 37.835 37.755 L 38.175 39.796 L 36.148 39.796 Z  M 37.846 31.633 L 39.873 31.633 L 40.213 33.673 L 38.186 33.673 L 37.846 31.633 Z  M 38.697 36.735 L 38.358 34.694 L 40.384 34.694 L 40.724 36.735 L 38.697 36.735 Z  M 39.21 39.796 L 38.87 37.755 L 40.896 37.755 L 41.236 39.796 L 39.21 39.796 Z " fill="rgb(0,0,0)"/><path d=" M 17.141 41.78 C 16.855 41.729 16.601 41.923 16.556 42.201 L 15.72 47.367 C 15.675 47.645 15.864 47.907 16.142 47.952 C 16.17 47.957 16.197 47.959 16.224 47.959 C 16.47 47.959 16.687 47.781 16.727 47.531 L 17.563 42.364 C 17.608 42.087 17.419 41.824 17.141 41.78 Z " fill="rgb(0,0,0)"/><path d=" M 32.857 41.876 C 32.579 41.921 32.39 42.184 32.436 42.461 L 33.272 47.532 C 33.313 47.782 33.529 47.959 33.775 47.959 C 33.802 47.959 33.83 47.957 33.859 47.952 C 34.136 47.906 34.325 47.644 34.279 47.366 L 33.443 42.296 C 33.397 42.018 33.14 41.826 32.857 41.876 Z " fill="rgb(0,0,0)"/><path d=" M 47.34 31.132 C 47.34 31.129 47.342 31.126 47.342 31.122 C 47.342 31.089 47.329 31.059 47.323 31.028 L 46.315 24.917 C 46.274 24.67 46.061 24.49 45.812 24.49 L 4.187 24.49 C 3.937 24.49 3.724 24.67 3.684 24.917 L 2.676 31.028 C 2.67 31.059 2.657 31.089 2.657 31.122 C 2.657 31.126 2.659 31.129 2.659 31.132 L 0.041 46.993 C -0.094 47.739 0.107 48.502 0.592 49.084 C 1.079 49.666 1.792 50 2.551 50 L 47.448 50 C 48.208 50 48.921 49.666 49.406 49.084 C 49.892 48.502 50.093 47.74 49.96 47.002 L 47.34 31.132 Z  M 48.623 48.43 C 48.331 48.78 47.903 48.98 47.448 48.98 L 2.551 48.98 C 2.096 48.98 1.667 48.78 1.375 48.43 C 1.083 48.081 0.963 47.623 1.046 47.167 L 2.095 40.816 L 5.612 40.816 C 5.893 40.816 6.122 40.588 6.122 40.306 C 6.122 40.024 5.893 39.796 5.612 39.796 L 2.263 39.796 L 3.61 31.633 L 7.653 31.633 C 7.934 31.633 8.163 31.404 8.163 31.122 C 8.163 30.841 7.934 30.612 7.653 30.612 L 3.778 30.612 L 4.62 25.51 L 45.378 25.51 L 46.22 30.612 L 42.346 30.612 C 42.065 30.612 41.836 30.841 41.836 31.122 C 41.836 31.404 42.065 31.633 42.346 31.633 L 46.389 31.633 L 47.736 39.796 L 44.387 39.796 C 44.106 39.796 43.877 40.024 43.877 40.306 C 43.877 40.588 44.106 40.816 44.387 40.816 L 47.904 40.816 L 48.954 47.176 C 49.035 47.623 48.915 48.081 48.623 48.43 Z " fill="rgb(0,0,0)"/><path d=" M 0.599 0.914 C 0.111 1.496 -0.091 2.259 0.041 3.002 L 3.317 23.043 C 3.363 23.32 3.628 23.513 3.903 23.463 C 4.18 23.418 4.37 23.155 4.324 22.878 L 1.047 2.829 C 0.966 2.378 1.087 1.918 1.381 1.568 C 1.672 1.219 2.101 1.02 2.555 1.02 L 47.443 1.02 C 47.898 1.02 48.326 1.219 48.618 1.568 C 48.911 1.918 49.032 2.378 48.95 2.836 L 45.675 22.877 C 45.63 23.154 45.819 23.417 46.096 23.462 C 46.124 23.467 46.151 23.469 46.179 23.469 C 46.425 23.469 46.641 23.292 46.682 23.042 L 49.955 3.008 C 50.089 2.259 49.887 1.496 49.399 0.913 C 48.915 0.333 48.201 0 47.444 0 L 2.555 0 C 1.798 0 1.084 0.333 0.599 0.914 Z " fill="rgb(0,0,0)"/><path d=" M 10.714 29.592 L 12.755 29.592 C 13.036 29.592 13.265 29.363 13.265 29.082 C 13.265 28.8 13.036 28.571 12.755 28.571 L 10.714 28.571 C 10.432 28.571 10.204 28.8 10.204 29.082 C 10.204 29.363 10.432 29.592 10.714 29.592 Z " fill="rgb(0,0,0)"/><path d=" M 14.795 29.592 L 16.836 29.592 C 17.118 29.592 17.346 29.363 17.346 29.082 C 17.346 28.8 17.118 28.571 16.836 28.571 L 14.795 28.571 C 14.514 28.571 14.285 28.8 14.285 29.082 C 14.285 29.363 14.514 29.592 14.795 29.592 Z " fill="rgb(0,0,0)"/><path d=" M 18.877 29.592 L 20.918 29.592 C 21.2 29.592 21.428 29.363 21.428 29.082 C 21.428 28.8 21.2 28.571 20.918 28.571 L 18.877 28.571 C 18.595 28.571 18.367 28.8 18.367 29.082 C 18.367 29.363 18.595 29.592 18.877 29.592 Z " fill="rgb(0,0,0)"/><path d=" M 23.979 29.592 L 26.02 29.592 C 26.302 29.592 26.53 29.363 26.53 29.082 C 26.53 28.8 26.302 28.571 26.02 28.571 L 23.979 28.571 C 23.697 28.571 23.469 28.8 23.469 29.082 C 23.469 29.363 23.697 29.592 23.979 29.592 Z " fill="rgb(0,0,0)"/><path d=" M 29.081 29.592 L 31.122 29.592 C 31.404 29.592 31.632 29.363 31.632 29.082 C 31.632 28.8 31.404 28.571 31.122 28.571 L 29.081 28.571 C 28.799 28.571 28.571 28.8 28.571 29.082 C 28.571 29.363 28.799 29.592 29.081 29.592 Z " fill="rgb(0,0,0)"/><path d=" M 33.163 29.592 L 35.204 29.592 C 35.485 29.592 35.714 29.363 35.714 29.082 C 35.714 28.8 35.485 28.571 35.204 28.571 L 33.163 28.571 C 32.881 28.571 32.653 28.8 32.653 29.082 C 32.653 29.363 32.881 29.592 33.163 29.592 Z " fill="rgb(0,0,0)"/><path d=" M 37.244 29.592 L 39.285 29.592 C 39.567 29.592 39.795 29.363 39.795 29.082 C 39.795 28.8 39.567 28.571 39.285 28.571 L 37.244 28.571 C 36.963 28.571 36.734 28.8 36.734 29.082 C 36.734 29.363 36.963 29.592 37.244 29.592 Z " fill="rgb(0,0,0)"/><ellipse vector-effect="non-scaling-stroke" cx="25.01581133000093" cy="2.544897959183672" rx="0.5102012809282179" ry="0.510204081632653" fill="rgb(0,0,0)"/></g></svg>