<?xml version="1.0" encoding="UTF-8" standalone="no"?><!-- Generator: Gravit.io --><svg xmlns="http://www.w3.org/2000/svg" xmlns:xlink="http://www.w3.org/1999/xlink" style="isolation:isolate" viewBox="0 0 50 50" width="50pt" height="50pt"><defs><clipPath id="_clipPath_6QQZKC2YjZH0QB9oy5sRUxJWV7LMHthM"><rect width="50" height="50"/></clipPath></defs><g clip-path="url(#_clipPath_6QQZKC2YjZH0QB9oy5sRUxJWV7LMHthM)"><g><path d=" M 50 1.562 C 50 0.691 49.309 0 48.438 0 L 34.398 0 C 33.511 0 32.85 0.7 32.848 1.588 C 32.848 2.473 33.511 3.125 34.398 3.125 L 46.875 3.125 L 46.85 15.661 C 46.85 16.548 47.525 17.223 48.412 17.223 C 49.3 17.222 49.975 16.548 49.975 15.661 L 50 1.586 C 50 1.581 49.998 1.578 49.998 1.575 C 49.998 1.57 50 1.567 50 1.562 Z " fill="rgb(255,255,255)"/><path d=" M 15.65 0 L 1.611 0 C 1.606 0 1.603 0.002 1.598 0.002 C 1.595 0.002 1.591 0 1.588 0 C 0.716 0 0.025 0.691 0.025 1.562 L 0 15.637 C 0 16.525 0.7 17.187 1.588 17.187 C 2.473 17.187 3.125 16.525 3.125 15.637 L 3.15 3.125 L 15.65 3.125 C 16.537 3.125 17.212 2.45 17.212 1.562 C 17.211 0.675 16.536 0 15.65 0 Z " fill="rgb(255,255,255)"/><path d=" M 15.602 46.875 L 3.125 46.875 L 3.125 34.375 C 3.125 33.488 2.45 32.813 1.563 32.813 C 0.675 32.813 0 33.488 0 34.375 L 0 48.414 C 0 48.419 0.002 48.422 0.002 48.425 C 0.002 48.43 0 48.433 0 48.438 C 0 49.309 0.691 50 1.562 50 L 15.601 50 C 16.489 50 17.15 49.3 17.151 48.412 C 17.152 47.527 16.489 46.875 15.602 46.875 Z " fill="rgb(255,255,255)"/><path d=" M 48.412 32.848 C 47.525 32.848 46.873 33.511 46.875 34.398 L 46.875 46.875 L 34.375 46.875 C 33.488 46.875 32.813 47.55 32.813 48.438 C 32.813 49.325 33.488 50 34.375 50 L 48.414 50 C 48.419 50 48.422 49.998 48.425 49.998 C 48.43 49.997 48.433 50 48.437 50 C 49.309 50 50 49.309 50 48.438 L 50 34.398 C 50 33.511 49.3 32.848 48.412 32.848 Z " fill="rgb(255,255,255)"/></g></g></svg>