<?xml version="1.0" encoding="UTF-8" standalone="no"?><!-- Generator: Gravit.io --><svg xmlns="http://www.w3.org/2000/svg" xmlns:xlink="http://www.w3.org/1999/xlink" style="isolation:isolate" viewBox="0 0 50 50" width="50pt" height="50pt"><defs><clipPath id="_clipPath_wHHJ9PjHAuB7U6lLCCNSMhfFNZSRdGbz"><rect width="50" height="50"/></clipPath></defs><g clip-path="url(#_clipPath_wHHJ9PjHAuB7U6lLCCNSMhfFNZSRdGbz)"><g><path d=" M 25 0 C 11.215 0 0 11.215 0 25 C 0 38.785 11.215 50 25 50 C 38.785 50 50 38.785 50 25 C 50 11.215 38.785 0 25 0 Z  M 25 46.816 C 12.97 46.816 3.183 37.03 3.183 25 C 3.183 12.97 12.97 3.184 25 3.184 C 37.03 3.184 46.817 12.97 46.817 25 C 46.817 37.03 37.029 46.816 25 46.816 Z " fill="rgb(255,255,255)"/><path d=" M 29.677 14.486 C 28.798 14.486 28.085 15.199 28.085 16.078 L 28.085 33.922 C 28.085 34.801 28.798 35.514 29.677 35.514 C 30.556 35.514 31.269 34.801 31.269 33.922 L 31.269 16.078 C 31.269 15.199 30.556 14.486 29.677 14.486 Z " fill="rgb(255,255,255)"/><path d=" M 20.323 14.486 C 19.444 14.486 18.731 15.199 18.731 16.078 L 18.731 33.922 C 18.731 34.801 19.444 35.514 20.323 35.514 C 21.202 35.514 21.915 34.801 21.915 33.922 L 21.915 16.078 C 21.915 15.199 21.202 14.486 20.323 14.486 Z " fill="rgb(255,255,255)"/></g></g></svg>