<?xml version="1.0" encoding="UTF-8" standalone="no"?><!-- Generator: Gravit.io --><svg xmlns="http://www.w3.org/2000/svg" xmlns:xlink="http://www.w3.org/1999/xlink" style="isolation:isolate" viewBox="0 0 50 50" width="50pt" height="50pt"><defs><clipPath id="_clipPath_huKQVEnq9XxvbiDdVvEnV1MBWGc40u5r"><rect width="50" height="50"/></clipPath></defs><g clip-path="url(#_clipPath_huKQVEnq9XxvbiDdVvEnV1MBWGc40u5r)"><g><path d=" M 25 0 C 11.214 0 0 11.214 0 25 C 0 38.786 11.214 50 25 50 C 38.786 50 50 38.786 50 25 C 50 11.214 38.786 0 25 0 Z  M 25 47.867 C 12.388 47.867 2.133 37.612 2.133 25 C 2.133 12.388 12.388 2.133 25 2.133 C 37.612 2.133 47.867 12.388 47.867 25 C 47.867 37.612 37.612 47.867 25 47.867 Z " fill="rgb(255,255,255)"/><path d=" M 35.02 24.122 L 21.235 14.694 C 20.806 14.378 19.663 14.378 19.571 15.571 L 19.571 34.429 C 19.673 35.622 20.837 35.643 21.235 35.306 L 35.02 25.878 C 35.378 25.663 35.867 24.786 35.02 24.122 L 35.02 24.122 Z  M 21.704 32.418" fill="rgb(255,255,255)"/></g></g></svg>