<?xml version="1.0" encoding="UTF-8" standalone="no"?><!-- Generator: Gravit.io --><svg xmlns="http://www.w3.org/2000/svg" xmlns:xlink="http://www.w3.org/1999/xlink" style="isolation:isolate" viewBox="0 0 50 50" width="50pt" height="50pt"><defs><clipPath id="_clipPath_K9yMrEVmpWhPPcNGH1Nvg3oJJvm2pta8"><rect width="50" height="50"/></clipPath></defs><g clip-path="url(#_clipPath_K9yMrEVmpWhPPcNGH1Nvg3oJJvm2pta8)"><g><g><g><path d=" M 25 0 C 11.192 0 0 11.192 0 25 C 0 38.808 11.192 50 25 50 C 38.808 50 50 38.806 50 25 C 50 11.194 38.808 0 25 0 Z  M 25 46.875 C 12.919 46.875 3.125 37.081 3.125 25 C 3.125 12.919 12.919 3.125 25 3.125 C 37.081 3.125 46.875 12.919 46.875 25 C 46.875 37.081 37.081 46.875 25 46.875 Z  M 34.375 23.438 L 26.563 23.438 L 26.563 15.625 C 26.563 14.763 25.863 14.063 25 14.063 C 24.138 14.063 23.438 14.763 23.438 15.625 L 23.438 23.438 L 15.625 23.438 C 14.763 23.438 14.063 24.138 14.063 25 C 14.063 25.863 14.763 26.563 15.625 26.563 L 23.438 26.563 L 23.438 34.375 C 23.438 35.238 24.138 35.938 25 35.938 C 25.863 35.938 26.563 35.238 26.563 34.375 L 26.563 26.563 L 34.375 26.563 C 35.238 26.563 35.938 25.863 35.938 25 C 35.938 24.138 35.238 23.438 34.375 23.438 Z " fill="rgb(255,255,255)"/></g></g></g></g></svg>