<?xml version="1.0" encoding="UTF-8" standalone="no"?><!-- Generator: Gravit.io --><svg xmlns="http://www.w3.org/2000/svg" xmlns:xlink="http://www.w3.org/1999/xlink" style="isolation:isolate" viewBox="0 0 50 50" width="50pt" height="50pt"><defs><clipPath id="_clipPath_Q9fSGSGvMkFG43JiPUkL7qFm9hcxOMqa"><rect width="50" height="50"/></clipPath></defs><g clip-path="url(#_clipPath_Q9fSGSGvMkFG43JiPUkL7qFm9hcxOMqa)"><g><path d=" M 25 0 C 11.214 0 0 11.215 0 25 C 0 38.786 11.213 50 25 50 C 38.783 50 50 38.786 50 25 C 50 11.215 38.783 0 25 0 Z  M 34.4 27.014 L 15.599 27.014 C 14.486 27.014 13.584 26.111 13.584 25 C 13.584 23.889 14.486 22.986 15.599 22.986 L 34.4 22.986 C 35.512 22.986 36.415 23.889 36.415 25 C 36.415 26.111 35.512 27.014 34.4 27.014 Z " fill="rgb(213,25,0)"/></g></g></svg>