<?xml version="1.0" encoding="UTF-8" standalone="no"?><!-- Generator: Gravit.io --><svg xmlns="http://www.w3.org/2000/svg" xmlns:xlink="http://www.w3.org/1999/xlink" style="isolation:isolate" viewBox="0 0 50 50" width="50pt" height="50pt"><defs><clipPath id="_clipPath_RxaQxt0egg0iDXcM6ZYJ5iCfhJIHR3Ws"><rect width="50" height="50"/></clipPath></defs><g clip-path="url(#_clipPath_RxaQxt0egg0iDXcM6ZYJ5iCfhJIHR3Ws)"><g><g><path d=" M 49.537 47.365 L 31.525 29.777 C 34.519 26.612 36.352 22.386 36.352 17.748 C 36.352 7.962 28.199 0 18.176 0 C 8.154 0 0 7.962 0 17.748 C 0 27.534 8.154 35.496 18.176 35.496 C 22.312 35.496 26.127 34.138 29.185 31.857 L 47.302 49.548 C 47.61 49.849 48.015 50 48.419 50 C 48.823 50 49.229 49.849 49.537 49.548 C 50.154 48.945 50.154 47.968 49.537 47.365 Z  M 3.161 17.748 C 3.161 9.663 9.897 3.087 18.176 3.087 C 26.456 3.087 33.192 9.663 33.192 17.748 C 33.192 25.833 26.456 32.409 18.176 32.409 C 9.897 32.409 3.161 25.832 3.161 17.748 Z " fill="rgb(255,255,255)"/></g></g></g></svg>