<?xml version="1.0" encoding="UTF-8" standalone="no"?><!-- Generator: Gravit.io --><svg xmlns="http://www.w3.org/2000/svg" xmlns:xlink="http://www.w3.org/1999/xlink" style="isolation:isolate" viewBox="0 0 50 50" width="50pt" height="50pt"><defs><clipPath id="_clipPath_Z2lj8wTMfdMJ3lfmGwT0n6b2N7tuGqI9"><rect width="50" height="50"/></clipPath></defs><g clip-path="url(#_clipPath_Z2lj8wTMfdMJ3lfmGwT0n6b2N7tuGqI9)"><path d=" M 25 0 C 11.193 0 0 11.193 0 25 C 0 38.807 11.193 50 25 50 C 38.807 50 50 38.807 50 25 C 50 11.193 38.807 0 25 0 Z  M 35.88 36.282 C 35.562 36.826 34.99 37.129 34.403 37.129 C 34.11 37.129 33.813 37.054 33.542 36.895 C 29.049 34.27 23.859 33.848 20.296 33.956 C 16.348 34.076 13.453 34.856 13.424 34.864 C 12.514 35.112 11.574 34.577 11.325 33.667 C 11.075 32.757 11.609 31.817 12.518 31.567 C 12.649 31.531 15.764 30.685 20.096 30.542 C 22.647 30.458 25.104 30.635 27.396 31.07 C 30.299 31.621 32.947 32.588 35.267 33.943 C 36.082 34.42 36.357 35.467 35.88 36.282 Z  M 39.059 29.681 C 38.682 30.325 38.004 30.684 37.308 30.684 C 36.961 30.684 36.61 30.595 36.289 30.407 C 30.967 27.297 24.819 26.798 20.598 26.926 C 15.922 27.068 12.493 27.991 12.459 28.001 C 11.381 28.295 10.267 27.661 9.972 26.583 C 9.676 25.506 10.308 24.392 11.386 24.096 C 11.54 24.053 15.23 23.051 20.361 22.882 C 23.384 22.782 26.294 22.993 29.009 23.508 C 32.447 24.16 35.584 25.305 38.332 26.911 C 39.298 27.475 39.623 28.715 39.059 29.681 Z  M 41.012 23.679 C 40.587 23.679 40.156 23.569 39.761 23.339 C 27.11 15.945 10.699 20.341 10.535 20.386 C 9.212 20.751 7.845 19.974 7.48 18.651 C 7.116 17.329 7.893 15.961 9.215 15.597 C 9.405 15.545 13.931 14.315 20.225 14.108 C 23.933 13.986 27.502 14.244 30.832 14.876 C 35.05 15.676 38.898 17.08 42.268 19.05 C 43.452 19.742 43.851 21.263 43.159 22.448 C 42.697 23.238 41.866 23.679 41.012 23.679 Z " fill="rgb(0,217,95)"/></g></svg>