<?xml version="1.0" encoding="UTF-8" standalone="no"?><!-- Generator: Gravit.io --><svg xmlns="http://www.w3.org/2000/svg" xmlns:xlink="http://www.w3.org/1999/xlink" style="isolation:isolate" viewBox="0 0 50 50" width="50pt" height="50pt"><defs><clipPath id="_clipPath_7zXdmx03AdTfBwN52o0d19tagDuXGwPH"><rect width="50" height="50"/></clipPath></defs><g clip-path="url(#_clipPath_7zXdmx03AdTfBwN52o0d19tagDuXGwPH)"><g><g><path d=" M 50 25 C 50 11.215 38.785 0 25 0 C 11.215 0 0 11.215 0 25 C 0 38.785 11.215 50 25 50 C 38.785 50 50 38.785 50 25 Z  M 2.498 25 C 2.498 12.592 12.592 2.498 25 2.498 C 37.408 2.498 47.502 12.592 47.502 25 C 47.502 37.408 37.408 47.502 25 47.502 C 12.592 47.502 2.498 37.408 2.498 25 Z " fill="rgb(255,255,255)"/><path d=" M 24.113 13.244 L 17.088 20.269 C 16.599 20.759 16.599 21.544 17.088 22.033 C 17.577 22.522 18.363 22.522 18.852 22.033 L 23.746 17.139 L 23.746 35.848 C 23.746 36.542 24.307 37.102 25 37.102 C 25.693 37.102 26.254 36.542 26.254 35.848 L 26.254 17.149 L 31.148 22.043 C 31.637 22.533 32.423 22.533 32.912 22.043 C 33.401 21.554 33.401 20.769 32.912 20.279 L 25.887 13.254 C 25.642 13.01 25.326 12.887 25 12.887 C 24.674 12.887 24.358 13 24.113 13.244 Z " fill="rgb(255,255,255)"/></g></g></g></svg>