<?xml version="1.0" encoding="UTF-8" standalone="no"?><!-- Generator: Gravit.io --><svg xmlns="http://www.w3.org/2000/svg" xmlns:xlink="http://www.w3.org/1999/xlink" style="isolation:isolate" viewBox="0 0 50 50" width="50pt" height="50pt"><defs><clipPath id="_clipPath_mwQNMkT9eRLG5oYTbjyI0ac6opUGZZeG"><rect width="50" height="50"/></clipPath></defs><g clip-path="url(#_clipPath_mwQNMkT9eRLG5oYTbjyI0ac6opUGZZeG)"><path d=" M 48.97 12.978 C 48.393 10.836 46.705 9.148 44.563 8.571 C 40.65 7.5 25 7.5 25 7.5 C 25 7.5 9.349 7.5 5.436 8.53 C 3.336 9.106 1.606 10.836 1.03 12.978 C 0 16.89 0 25.004 0 25.004 C 0 25.004 0 33.159 1.03 37.03 C 1.606 39.172 3.295 40.861 5.437 41.437 C 9.39 42.508 25 42.508 25 42.508 C 25 42.508 40.65 42.508 44.563 41.478 C 46.705 40.902 48.393 39.213 48.97 37.071 C 50 33.159 50 25.045 50 25.045 C 50 25.045 50.041 16.89 48.97 12.978 Z " fill="rgb(255,0,0)"/><path d=" M 20.016 32.5 L 33.031 25.004 L 20.016 17.508 L 20.016 32.5 Z " fill="rgb(255,255,255)"/></g></svg>